<svg width="40" height="40" viewBox="0 0 36 32" fill="none" xmlns="http://www.w3.org/2000/svg">
<path d="M24.7318 4.88001C23.19 3.71794 21.304 2.97745 19.3008 2.74765C17.2975 2.51785 15.2624 2.80853 13.4403 3.58472C11.6182 4.3609 10.0867 5.58951 9.03028 7.1227C7.97382 8.65588 7.43734 10.4283 7.48542 12.2267C7.75262 15.4048 9.35655 18.3761 11.9767 20.5467C12.7402 21.32 13.4738 22.12 13.4738 22.5333V25.7067C13.4738 26.1829 13.5791 26.6545 13.7837 27.0945C13.9884 27.5345 14.2883 27.9344 14.6664 28.2711C15.0446 28.6079 15.4935 28.875 15.9875 29.0573C16.4816 29.2395 17.0111 29.3333 17.5458 29.3333H18.3842C19.4642 29.3333 20.4999 28.9513 21.2636 28.2711C22.0272 27.591 22.4563 26.6685 22.4563 25.7067V22.5333C22.4563 22.12 23.2497 21.32 23.9533 20.5467C26.6395 18.3251 28.2502 15.2602 28.4446 12C28.4435 10.6443 28.1108 9.30504 27.4696 8.07545C26.8284 6.84585 25.8942 5.75542 24.7318 4.88001ZM18.3842 28H17.5458C16.8629 28 16.2079 27.7584 15.725 27.3283C15.2421 26.8982 14.9708 26.3149 14.9708 25.7067V24H20.9592V25.7067C20.9592 26.3149 20.6879 26.8982 20.205 27.3283C19.7221 27.7584 19.0671 28 18.3842 28ZM22.8754 19.6667C21.7826 20.7467 20.9292 21.6133 20.9292 22.5333V22.6667H14.9708V22.5333C14.9708 21.6133 14.1175 20.7467 13.0246 19.6667C10.6825 17.7115 9.24156 15.0497 8.98251 12.2C8.93079 10.2767 9.65907 8.40113 11.0339 6.91714C12.4086 5.43315 14.3378 4.44011 16.4679 4.12001C17.7552 3.92622 19.0744 3.98467 20.3337 4.29129C21.593 4.5979 22.7622 5.14531 23.7597 5.8954C24.7572 6.64549 25.5592 7.58022 26.1098 8.6345C26.6603 9.68879 26.9462 10.8373 26.9475 12C26.9475 15.6 24.6121 17.9467 22.9054 19.6667H22.8754Z" fill="white"/>
<path d="M32.1873 10.6667H30.6902C30.4917 10.6667 30.3013 10.7369 30.1609 10.8619C30.0205 10.987 29.9417 11.1565 29.9417 11.3334C29.9417 11.5102 30.0205 11.6797 30.1609 11.8048C30.3013 11.9298 30.4917 12 30.6902 12H32.1873C32.3858 12 32.5762 11.9298 32.7166 11.8048C32.857 11.6797 32.9358 11.5102 32.9358 11.3334C32.9358 11.1565 32.857 10.987 32.7166 10.8619C32.5762 10.7369 32.3858 10.6667 32.1873 10.6667Z" fill="white"/>
<path d="M5.98834 11.3334C5.98834 11.1565 5.90947 10.987 5.76909 10.8619C5.62872 10.7369 5.43832 10.6667 5.2398 10.6667H3.74271C3.54419 10.6667 3.35379 10.7369 3.21341 10.8619C3.07304 10.987 2.99417 11.1565 2.99417 11.3334C2.99417 11.5102 3.07304 11.6797 3.21341 11.8048C3.35379 11.9298 3.54419 12 3.74271 12H5.2398C5.43832 12 5.62872 11.9298 5.76909 11.8048C5.90947 11.6797 5.98834 11.5102 5.98834 11.3334Z" fill="white"/>
<path d="M5.76378 2.86667C5.62481 2.7429 5.43633 2.67337 5.2398 2.67337C5.04327 2.67337 4.85479 2.7429 4.71582 2.86667C4.57685 2.99044 4.49878 3.1583 4.49878 3.33334C4.49878 3.50837 4.57685 3.67624 4.71582 3.8L6.2129 5.13334C6.28011 5.19711 6.36127 5.24794 6.4514 5.28269C6.54152 5.31743 6.63868 5.33536 6.73688 5.33536C6.83508 5.33536 6.93225 5.31743 7.02237 5.28269C7.11249 5.24794 7.19366 5.19711 7.26086 5.13334C7.33247 5.07348 7.38954 5.00119 7.42855 4.92093C7.46757 4.84067 7.4877 4.75413 7.4877 4.66667C7.4877 4.57921 7.46757 4.49267 7.42855 4.41241C7.38954 4.33215 7.33247 4.25986 7.26086 4.2L5.76378 2.86667Z" fill="white"/>
<path d="M29.1931 5.33334C29.2913 5.3344 29.3886 5.31716 29.4789 5.28271C29.5691 5.24827 29.6503 5.19739 29.7171 5.13334L31.2142 3.8C31.3532 3.67624 31.4312 3.50837 31.4312 3.33334C31.4312 3.1583 31.3532 2.99044 31.2142 2.86667C31.0752 2.7429 30.8867 2.67337 30.6902 2.67337C30.4937 2.67337 30.3052 2.7429 30.1662 2.86667L28.6692 4.2C28.5975 4.25986 28.5405 4.33215 28.5015 4.41241C28.4624 4.49267 28.4423 4.57921 28.4423 4.66667C28.4423 4.75413 28.4624 4.84067 28.5015 4.92093C28.5405 5.00119 28.5975 5.07348 28.6692 5.13334C28.736 5.19739 28.8171 5.24827 28.9074 5.28271C28.9976 5.31716 29.095 5.3344 29.1931 5.33334Z" fill="white"/>
<path d="M29.7171 17.5334C29.5781 17.4096 29.3897 17.3401 29.1931 17.3401C28.9966 17.3401 28.8081 17.4096 28.6692 17.5334C28.5302 17.6571 28.4521 17.825 28.4521 18C28.4521 18.1751 28.5302 18.3429 28.6692 18.4667L30.1662 19.8C30.2334 19.8638 30.3146 19.9146 30.4047 19.9494C30.4949 19.9841 30.592 20.002 30.6902 20.002C30.7884 20.002 30.8856 19.9841 30.9757 19.9494C31.0658 19.9146 31.147 19.8638 31.2142 19.8C31.2858 19.7402 31.3429 19.6679 31.3819 19.5876C31.4209 19.5074 31.441 19.4208 31.441 19.3334C31.441 19.2459 31.4209 19.1594 31.3819 19.0791C31.3429 18.9988 31.2858 18.9265 31.2142 18.8667L29.7171 17.5334Z" fill="white"/>
<path d="M6.2129 17.5334L4.71582 18.8667C4.64421 18.9265 4.58714 18.9988 4.54813 19.0791C4.50911 19.1594 4.48898 19.2459 4.48898 19.3334C4.48898 19.4208 4.50911 19.5074 4.54813 19.5876C4.58714 19.6679 4.64421 19.7402 4.71582 19.8C4.78302 19.8638 4.86419 19.9146 4.95431 19.9494C5.04443 19.9841 5.14159 20.002 5.2398 20.002C5.338 20.002 5.43516 19.9841 5.52528 19.9494C5.61541 19.9146 5.69657 19.8638 5.76378 19.8L7.26086 18.4667C7.39983 18.3429 7.4779 18.1751 7.4779 18C7.4779 17.825 7.39983 17.6571 7.26086 17.5334C7.12189 17.4096 6.93341 17.3401 6.73688 17.3401C6.54035 17.3401 6.35187 17.4096 6.2129 17.5334Z" fill="white"/>
<path d="M19.6867 9.53336L15.1954 13.5334C15.0863 13.6227 15.0117 13.7403 14.9821 13.8696C14.9526 13.9989 14.9696 14.1332 15.0307 14.2534C15.0869 14.3751 15.1822 14.4793 15.3048 14.5529C15.4273 14.6264 15.5716 14.666 15.7194 14.6667H18.3992L16.6925 16.2C16.6209 16.2599 16.5638 16.3322 16.5248 16.4124C16.4858 16.4927 16.4657 16.5792 16.4657 16.6667C16.4657 16.7542 16.4858 16.8407 16.5248 16.9209C16.5638 17.0012 16.6209 17.0735 16.6925 17.1334C16.7597 17.1971 16.8409 17.248 16.931 17.2827C17.0211 17.3175 17.1183 17.3354 17.2165 17.3354C17.3147 17.3354 17.4118 17.3175 17.502 17.2827C17.5921 17.248 17.6732 17.1971 17.7404 17.1334L20.7346 14.4667C20.8437 14.3774 20.9183 14.2597 20.9479 14.1304C20.9774 14.0012 20.9604 13.8669 20.8993 13.7467C20.8431 13.6249 20.7478 13.5207 20.6252 13.4472C20.5027 13.3736 20.3584 13.334 20.2106 13.3334H17.5309L20.7346 10.4667C20.8736 10.3429 20.9517 10.1751 20.9517 10C20.9517 9.82499 20.8736 9.65712 20.7346 9.53336C20.5956 9.40959 20.4072 9.34006 20.2106 9.34006C20.0141 9.34006 19.8256 9.40959 19.6867 9.53336Z" fill="white"/>
</svg>
