<svg width="94" height="34" viewBox="0 0 94 34" fill="none" xmlns="http://www.w3.org/2000/svg">
<path d="M39.5668 9.25001V6.13001H45.8068V28H42.3568V9.25001H39.5668Z" fill="#363636"/>
<path d="M54.7851 28.14C53.8517 28.14 53.0117 27.98 52.2651 27.66C51.5184 27.3267 50.9317 26.86 50.5051 26.26C50.0784 25.66 49.8651 24.96 49.8651 24.16H52.3051C52.3584 24.76 52.5917 25.2533 53.0051 25.64C53.4317 26.0267 54.0251 26.22 54.7851 26.22C55.5717 26.22 56.1851 26.0333 56.6251 25.66C57.0651 25.2733 57.2851 24.78 57.2851 24.18C57.2851 23.7133 57.1451 23.3333 56.8651 23.04C56.5984 22.7467 56.2584 22.52 55.8451 22.36C55.4451 22.2 54.8851 22.0267 54.1651 21.84C53.2584 21.6 52.5184 21.36 51.9451 21.12C51.3851 20.8667 50.9051 20.48 50.5051 19.96C50.1051 19.44 49.9051 18.7467 49.9051 17.88C49.9051 17.08 50.1051 16.38 50.5051 15.78C50.9051 15.18 51.4651 14.72 52.1851 14.4C52.9051 14.08 53.7384 13.92 54.6851 13.92C56.0317 13.92 57.1317 14.26 57.9851 14.94C58.8517 15.6067 59.3317 16.5267 59.4251 17.7H56.9051C56.8651 17.1933 56.6251 16.76 56.1851 16.4C55.7451 16.04 55.1651 15.86 54.4451 15.86C53.7917 15.86 53.2584 16.0267 52.8451 16.36C52.4317 16.6933 52.2251 17.1733 52.2251 17.8C52.2251 18.2267 52.3517 18.58 52.6051 18.86C52.8717 19.1267 53.2051 19.34 53.6051 19.5C54.0051 19.66 54.5517 19.8333 55.2451 20.02C56.1651 20.2733 56.9117 20.5267 57.4851 20.78C58.0717 21.0333 58.5651 21.4267 58.9651 21.96C59.3784 22.48 59.5851 23.18 59.5851 24.06C59.5851 24.7667 59.3917 25.4333 59.0051 26.06C58.6317 26.6867 58.0784 27.1933 57.3451 27.58C56.6251 27.9533 55.7717 28.14 54.7851 28.14Z" fill="#363636"/>
<path d="M64.9354 18.84V24.94C64.9354 25.3533 65.0287 25.6533 65.2154 25.84C65.4154 26.0133 65.7487 26.1 66.2154 26.1H67.6154V28H65.8154C64.7887 28 64.0021 27.76 63.4554 27.28C62.9087 26.8 62.6354 26.02 62.6354 24.94V18.84H61.3354V16.98H62.6354V14.24H64.9354V16.98H67.6154V18.84H64.9354Z" fill="#363636"/>
<path d="M79.8168 22.22C79.8168 22.6333 79.7901 23.0067 79.7368 23.34H71.3168C71.3835 24.22 71.7101 24.9267 72.2968 25.46C72.8835 25.9933 73.6035 26.26 74.4568 26.26C75.6835 26.26 76.5501 25.7467 77.0568 24.72H79.5168C79.1835 25.7333 78.5768 26.5667 77.6968 27.22C76.8301 27.86 75.7501 28.18 74.4568 28.18C73.4035 28.18 72.4568 27.9467 71.6168 27.48C70.7901 27 70.1368 26.3333 69.6568 25.48C69.1901 24.6133 68.9568 23.6133 68.9568 22.48C68.9568 21.3467 69.1835 20.3533 69.6368 19.5C70.1035 18.6333 70.7501 17.9667 71.5768 17.5C72.4168 17.0333 73.3768 16.8 74.4568 16.8C75.4968 16.8 76.4235 17.0267 77.2368 17.48C78.0501 17.9333 78.6835 18.5733 79.1368 19.4C79.5901 20.2133 79.8168 21.1533 79.8168 22.22ZM77.4368 21.5C77.4235 20.66 77.1235 19.9867 76.5368 19.48C75.9501 18.9733 75.2235 18.72 74.3568 18.72C73.5701 18.72 72.8968 18.9733 72.3368 19.48C71.7768 19.9733 71.4435 20.6467 71.3368 21.5H77.4368Z" fill="#363636"/>
<path d="M84.3405 18.6C84.7272 18.0933 85.2539 17.6667 85.9205 17.32C86.5872 16.9733 87.3405 16.8 88.1805 16.8C89.1405 16.8 90.0139 17.04 90.8005 17.52C91.6005 17.9867 92.2272 18.6467 92.6805 19.5C93.1339 20.3533 93.3605 21.3333 93.3605 22.44C93.3605 23.5467 93.1339 24.54 92.6805 25.42C92.2272 26.2867 91.6005 26.9667 90.8005 27.46C90.0139 27.94 89.1405 28.18 88.1805 28.18C87.3405 28.18 86.5939 28.0133 85.9405 27.68C85.2872 27.3333 84.7539 26.9067 84.3405 26.4V33.24H82.0605V16.98H84.3405V18.6ZM91.0406 22.44C91.0406 21.68 90.8805 21.0267 90.5605 20.48C90.2539 19.92 89.8405 19.5 89.3205 19.22C88.8139 18.9267 88.2672 18.78 87.6805 18.78C87.1072 18.78 86.5606 18.9267 86.0406 19.22C85.5339 19.5133 85.1205 19.94 84.8005 20.5C84.4939 21.06 84.3405 21.72 84.3405 22.48C84.3405 23.24 84.4939 23.9067 84.8005 24.48C85.1205 25.04 85.5339 25.4667 86.0406 25.76C86.5606 26.0533 87.1072 26.2 87.6805 26.2C88.2672 26.2 88.8139 26.0533 89.3205 25.76C89.8405 25.4533 90.2539 25.0133 90.5605 24.44C90.8805 23.8667 91.0406 23.2 91.0406 22.44Z" fill="#363636"/>
<path d="M23.845 2.94751C22.1715 1.53124 20.1243 0.628767 17.9499 0.348698C15.7755 0.0686285 13.5664 0.422899 11.5887 1.36887C9.61086 2.31485 7.94858 3.81222 6.80185 5.68079C5.65512 7.54936 5.07281 9.70951 5.125 11.9013C5.41503 15.7746 7.156 19.3958 10 22.0413C10.8287 22.9838 11.625 23.9588 11.625 24.4625V28.33C11.625 28.9105 11.7393 29.4852 11.9615 30.0215C12.1836 30.5577 12.5092 31.045 12.9196 31.4554C13.33 31.8659 13.8173 32.1914 14.3535 32.4136C14.8898 32.6357 15.4646 32.75 16.045 32.75H16.955C18.1273 32.75 19.2515 32.2843 20.0804 31.4554C20.9093 30.6265 21.375 29.5023 21.375 28.33V24.4625C21.375 23.9588 22.2362 22.9838 23 22.0413C25.9157 19.3338 27.664 15.5983 27.875 11.625C27.8738 9.97272 27.5127 8.34052 26.8167 6.84195C26.1207 5.34339 25.1067 4.01442 23.845 2.94751ZM16.955 31.125H16.045C15.3037 31.125 14.5928 30.8305 14.0686 30.3064C13.5445 29.7822 13.25 29.0713 13.25 28.33V26.25H19.75V28.33C19.75 29.0713 19.4555 29.7822 18.9314 30.3064C18.4072 30.8305 17.6963 31.125 16.955 31.125ZM21.83 20.9688C20.6437 22.285 19.7175 23.3413 19.7175 24.4625V24.625H13.25V24.4625C13.25 23.3413 12.3237 22.285 11.1375 20.9688C8.59526 18.5858 7.03119 15.3418 6.75 11.8688C6.69387 9.52468 7.48437 7.23887 8.97662 5.43026C10.4689 3.62165 12.5629 2.41139 14.875 2.02126C16.2723 1.78508 17.7042 1.85632 19.0711 2.23001C20.438 2.60369 21.7071 3.27085 22.7898 4.18502C23.8726 5.09919 24.7431 6.23839 25.3407 7.5233C25.9382 8.80821 26.2486 10.2079 26.25 11.625C26.25 16.0125 23.715 18.8725 21.8625 20.9688H21.83Z" fill="#363636"/>
<path d="M31.9375 10H30.3125C30.097 10 29.8903 10.0856 29.738 10.238C29.5856 10.3904 29.5 10.597 29.5 10.8125C29.5 11.028 29.5856 11.2347 29.738 11.387C29.8903 11.5394 30.097 11.625 30.3125 11.625H31.9375C32.153 11.625 32.3596 11.5394 32.512 11.387C32.6644 11.2347 32.75 11.028 32.75 10.8125C32.75 10.597 32.6644 10.3904 32.512 10.238C32.3596 10.0856 32.153 10 31.9375 10Z" fill="#363636"/>
<path d="M3.5 10.8125C3.5 10.597 3.4144 10.3904 3.26202 10.238C3.10965 10.0856 2.90299 10 2.6875 10H1.0625C0.847012 10 0.640349 10.0856 0.487976 10.238C0.335603 10.3904 0.25 10.597 0.25 10.8125C0.25 11.028 0.335603 11.2347 0.487976 11.387C0.640349 11.5394 0.847012 11.625 1.0625 11.625H2.6875C2.90299 11.625 3.10965 11.5394 3.26202 11.387C3.4144 11.2347 3.5 11.028 3.5 10.8125Z" fill="#363636"/>
<path d="M3.25625 0.493765C3.10541 0.342923 2.90082 0.25818 2.6875 0.25818C2.47418 0.25818 2.26959 0.342923 2.11875 0.493765C1.96791 0.644607 1.88317 0.849192 1.88317 1.06251C1.88317 1.27584 1.96791 1.48042 2.11875 1.63126L3.74375 3.25626C3.8167 3.33399 3.9048 3.39594 4.00262 3.43829C4.10044 3.48063 4.20591 3.50248 4.3125 3.50248C4.41909 3.50248 4.52456 3.48063 4.62238 3.43829C4.7202 3.39594 4.8083 3.33399 4.88125 3.25626C4.95897 3.18332 5.02092 3.09521 5.06327 2.99739C5.10562 2.89957 5.12747 2.79411 5.12747 2.68751C5.12747 2.58092 5.10562 2.47546 5.06327 2.37764C5.02092 2.27981 4.95897 2.19171 4.88125 2.11876L3.25625 0.493765Z" fill="#363636"/>
<path d="M28.6875 3.50001C28.7941 3.50131 28.8997 3.4803 28.9977 3.43832C29.0956 3.39634 29.1837 3.33432 29.2563 3.25626L30.8813 1.63126C31.0321 1.48042 31.1168 1.27584 31.1168 1.06251C31.1168 0.849192 31.0321 0.644607 30.8813 0.493765C30.7304 0.342923 30.5258 0.25818 30.3125 0.25818C30.0992 0.25818 29.8946 0.342923 29.7437 0.493765L28.1187 2.11876C28.041 2.19171 27.9791 2.27981 27.9367 2.37764C27.8944 2.47546 27.8725 2.58092 27.8725 2.68751C27.8725 2.79411 27.8944 2.89957 27.9367 2.99739C27.9791 3.09521 28.041 3.18332 28.1187 3.25626C28.1913 3.33432 28.2794 3.39634 28.3773 3.43832C28.4753 3.4803 28.5809 3.50131 28.6875 3.50001Z" fill="#363636"/>
<path d="M29.2563 18.3688C29.1054 18.2179 28.9008 18.1332 28.6875 18.1332C28.4742 18.1332 28.2696 18.2179 28.1187 18.3688C27.9679 18.5196 27.8832 18.7242 27.8832 18.9375C27.8832 19.1508 27.9679 19.3554 28.1187 19.5063L29.7437 21.1313C29.8167 21.209 29.9048 21.2709 30.0026 21.3133C30.1004 21.3556 30.2059 21.3775 30.3125 21.3775C30.4191 21.3775 30.5246 21.3556 30.6224 21.3133C30.7202 21.2709 30.8083 21.209 30.8813 21.1313C30.959 21.0583 31.0209 20.9702 31.0633 20.8724C31.1056 20.7746 31.1275 20.6691 31.1275 20.5625C31.1275 20.4559 31.1056 20.3505 31.0633 20.2526C31.0209 20.1548 30.959 20.0667 30.8813 19.9938L29.2563 18.3688Z" fill="#363636"/>
<path d="M3.74375 18.3688L2.11875 19.9938C2.04102 20.0667 1.97908 20.1548 1.93673 20.2526C1.89438 20.3505 1.87253 20.4559 1.87253 20.5625C1.87253 20.6691 1.89438 20.7746 1.93673 20.8724C1.97908 20.9702 2.04102 21.0583 2.11875 21.1313C2.1917 21.209 2.2798 21.2709 2.37762 21.3133C2.47544 21.3556 2.58091 21.3775 2.6875 21.3775C2.79409 21.3775 2.89956 21.3556 2.99738 21.3133C3.0952 21.2709 3.1833 21.209 3.25625 21.1313L4.88125 19.5063C5.03209 19.3554 5.11683 19.1508 5.11683 18.9375C5.11683 18.7242 5.03209 18.5196 4.88125 18.3688C4.73041 18.2179 4.52582 18.1332 4.3125 18.1332C4.09918 18.1332 3.89459 18.2179 3.74375 18.3688Z" fill="#363636"/>
<path d="M18.3687 8.61876L13.4937 13.4938C13.3754 13.6026 13.2944 13.746 13.2623 13.9036C13.2302 14.0611 13.2486 14.2248 13.315 14.3713C13.376 14.5196 13.4795 14.6467 13.6125 14.7363C13.7455 14.8259 13.9021 14.8742 14.0625 14.875H16.9712L15.1187 16.7438C15.041 16.8167 14.9791 16.9048 14.9367 17.0026C14.8944 17.1005 14.8725 17.2059 14.8725 17.3125C14.8725 17.4191 14.8944 17.5246 14.9367 17.6224C14.9791 17.7202 15.041 17.8083 15.1187 17.8813C15.1917 17.959 15.2798 18.0209 15.3776 18.0633C15.4754 18.1056 15.5809 18.1275 15.6875 18.1275C15.7941 18.1275 15.8996 18.1056 15.9974 18.0633C16.0952 18.0209 16.1833 17.959 16.2562 17.8813L19.5062 14.6313C19.6246 14.5224 19.7056 14.379 19.7377 14.2215C19.7698 14.0639 19.7514 13.9002 19.685 13.7538C19.624 13.6054 19.5205 13.4784 19.3875 13.3887C19.2545 13.2991 19.0979 13.2508 18.9375 13.25H16.0287L19.5062 9.75626C19.6571 9.60542 19.7418 9.40084 19.7418 9.18751C19.7418 8.97419 19.6571 8.76961 19.5062 8.61876C19.3554 8.46792 19.1508 8.38318 18.9375 8.38318C18.7242 8.38318 18.5196 8.46792 18.3687 8.61876Z" fill="#363636"/>
</svg>
